<svg width="146" height="25" viewBox="0 0 146 25" fill="none" xmlns="http://www.w3.org/2000/svg">
<mask id="mask0_370_4700" style="mask-type:luminance" maskUnits="userSpaceOnUse" x="0" y="2" width="20" height="21">
<path d="M0 2.5H20V22.5H0V2.5Z" fill="white"/>
</mask>
<g mask="url(#mask0_370_4700)">
<path d="M0.0057373 22.4942L9.97616 16.6917L20 22.4897V2.5L10.0295 8.30311L0.0057373 2.5045V22.4942ZM17.8626 6.259V18.7442L5.48413 11.5863V14.0966L7.80795 15.4385L2.14244 18.7352V6.25L14.5614 13.4304V10.9201L12.1977 9.55118L17.8626 6.259Z" fill="white"/>
</g>
<path d="M32.4131 19H30.0049L30.0137 17.1719H32.4131C33.0518 17.1719 33.5703 17.0576 33.9688 16.8291C34.3672 16.5947 34.6572 16.249 34.8389 15.792C35.0264 15.335 35.1201 14.7754 35.1201 14.1133V13.6387C35.1201 13.1465 35.0674 12.71 34.9619 12.3291C34.8623 11.9482 34.7041 11.6318 34.4873 11.3799C34.2705 11.1221 33.9893 10.9287 33.6436 10.7998C33.3037 10.665 32.8936 10.5977 32.4131 10.5977H29.9521V8.76074H32.4131C33.1572 8.76074 33.8369 8.88086 34.4521 9.12109C35.0674 9.35547 35.5977 9.68945 36.043 10.123C36.4941 10.5566 36.8428 11.0723 37.0889 11.6699C37.335 12.2676 37.458 12.9297 37.458 13.6562V14.1133C37.458 15.0742 37.2412 15.9238 36.8076 16.6621C36.3799 17.3945 35.7881 17.9688 35.0322 18.3848C34.2764 18.7949 33.4033 19 32.4131 19ZM31.3232 8.76074V19H28.9941V8.76074H31.3232ZM45.373 11.1426L42.4727 19H40.1172L44.2041 8.76074H45.7861L45.373 11.1426ZM48.1328 19L45.1973 11.1338L44.7842 8.76074H46.3838L50.4795 19H48.1328ZM48.0361 15.1943V16.8906H42.2793V15.1943H48.0361ZM55.96 8.76074V19H53.6309V8.76074H55.96ZM67.1445 17.1719V19H61.5898V17.1719H67.1445ZM62.3721 8.76074V19H60.043V8.76074H62.3721ZM73.0645 14.3857L75.8506 8.76074H78.3818L74.6113 15.625H73.3281L73.0645 14.3857ZM71.333 8.76074L74.1367 14.4385L73.8467 15.625H72.5723L68.8018 8.76074H71.333ZM74.7256 14.1924V19H72.3965V14.1924H74.7256ZM93.5967 16.293C93.5967 16.1113 93.5615 15.9473 93.4912 15.8008C93.4268 15.6543 93.3184 15.5225 93.166 15.4053C93.0137 15.2881 92.8027 15.1768 92.5332 15.0713C92.2695 14.9658 91.9385 14.8662 91.54 14.7725C90.9131 14.6201 90.3652 14.4531 89.8965 14.2715C89.4277 14.0898 89.0352 13.876 88.7188 13.6299C88.4082 13.3838 88.1738 13.0938 88.0156 12.7598C87.8633 12.4199 87.7871 12.0244 87.7871 11.5732C87.7871 11.1396 87.8809 10.7441 88.0684 10.3867C88.2617 10.0234 88.5312 9.70996 88.877 9.44629C89.2285 9.18262 89.6416 8.98047 90.1162 8.83984C90.5967 8.69336 91.1211 8.62012 91.6895 8.62012C92.5156 8.62012 93.2393 8.75195 93.8604 9.01562C94.4873 9.2793 94.9736 9.64844 95.3193 10.123C95.665 10.5918 95.8379 11.1484 95.8379 11.793H93.5088C93.5088 11.5234 93.4385 11.2803 93.2979 11.0635C93.1631 10.8408 92.9609 10.6621 92.6914 10.5273C92.4219 10.3926 92.0879 10.3252 91.6895 10.3252C91.3086 10.3252 90.9922 10.3838 90.7402 10.501C90.4941 10.6123 90.3096 10.7588 90.1865 10.9404C90.0693 11.1162 90.0107 11.3037 90.0107 11.5029C90.0107 11.667 90.0459 11.8164 90.1162 11.9512C90.1924 12.0801 90.3096 12.2002 90.4678 12.3115C90.6318 12.417 90.8457 12.5195 91.1094 12.6191C91.373 12.7129 91.6924 12.8096 92.0674 12.9092C92.6885 13.0498 93.2334 13.2168 93.7021 13.4102C94.1768 13.5977 94.5693 13.8232 94.8799 14.0869C95.1963 14.3506 95.4336 14.6582 95.5918 15.0098C95.75 15.3613 95.8291 15.7686 95.8291 16.2314C95.8291 16.6885 95.7354 17.0986 95.5479 17.4619C95.3604 17.8193 95.0879 18.124 94.7305 18.376C94.3789 18.6221 93.957 18.8125 93.4648 18.9473C92.9785 19.0762 92.4336 19.1406 91.8301 19.1406C91.291 19.1406 90.7607 19.0762 90.2393 18.9473C89.7178 18.8184 89.2461 18.6191 88.8242 18.3496C88.4023 18.0742 88.0654 17.7256 87.8135 17.3037C87.5615 16.8818 87.4355 16.3779 87.4355 15.792H89.7734C89.7734 16.085 89.8203 16.3369 89.9141 16.5479C90.0137 16.7588 90.1543 16.9316 90.3359 17.0664C90.5234 17.1953 90.752 17.292 91.0215 17.3564C91.291 17.415 91.5957 17.4443 91.9355 17.4443C92.334 17.4443 92.6562 17.3887 92.9023 17.2773C93.1484 17.166 93.3242 17.0225 93.4297 16.8467C93.541 16.6709 93.5967 16.4863 93.5967 16.293ZM105.792 15.5459H108.13C108.077 16.2607 107.869 16.8877 107.506 17.4268C107.143 17.9658 106.636 18.3877 105.985 18.6924C105.341 18.9912 104.57 19.1406 103.674 19.1406C102.959 19.1406 102.32 19.0264 101.758 18.7979C101.195 18.5693 100.715 18.2412 100.316 17.8135C99.9238 17.3799 99.6221 16.8584 99.4111 16.249C99.2061 15.6396 99.1035 14.9512 99.1035 14.1836V13.5859C99.1035 12.8184 99.2119 12.1299 99.4287 11.5205C99.6455 10.9053 99.9531 10.3838 100.352 9.95605C100.75 9.52246 101.228 9.19141 101.784 8.96289C102.347 8.72852 102.977 8.61133 103.674 8.61133C104.6 8.61133 105.379 8.76953 106.012 9.08594C106.65 9.40234 107.146 9.83887 107.497 10.3955C107.854 10.9463 108.068 11.5732 108.139 12.2764H105.81C105.78 11.9248 105.692 11.6113 105.546 11.3359C105.399 11.0605 105.174 10.8438 104.869 10.6855C104.57 10.5273 104.172 10.4482 103.674 10.4482C103.305 10.4482 102.979 10.5156 102.698 10.6504C102.417 10.7793 102.183 10.9756 101.995 11.2393C101.808 11.4971 101.667 11.8223 101.573 12.2148C101.479 12.6016 101.433 13.0557 101.433 13.5771V14.1836C101.433 14.6992 101.474 15.1533 101.556 15.5459C101.644 15.9326 101.778 16.2578 101.96 16.5215C102.142 16.7852 102.373 16.9844 102.654 17.1191C102.941 17.2539 103.281 17.3213 103.674 17.3213C104.137 17.3213 104.518 17.2568 104.816 17.1279C105.115 16.999 105.344 16.8027 105.502 16.5391C105.666 16.2695 105.763 15.9385 105.792 15.5459ZM120.659 13.6562V14.1133C120.659 14.8926 120.545 15.5928 120.316 16.2139C120.094 16.8291 119.774 17.3564 119.358 17.7959C118.942 18.2295 118.447 18.5635 117.873 18.7979C117.299 19.0264 116.663 19.1406 115.966 19.1406C115.269 19.1406 114.633 19.0264 114.059 18.7979C113.484 18.5635 112.986 18.2295 112.564 17.7959C112.143 17.3564 111.817 16.8291 111.589 16.2139C111.36 15.5928 111.246 14.8926 111.246 14.1133V13.6562C111.246 12.877 111.36 12.1797 111.589 11.5645C111.817 10.9434 112.14 10.4131 112.556 9.97363C112.972 9.53418 113.467 9.2002 114.041 8.97168C114.615 8.7373 115.251 8.62012 115.948 8.62012C116.646 8.62012 117.281 8.7373 117.855 8.97168C118.43 9.2002 118.925 9.53418 119.341 9.97363C119.763 10.4131 120.088 10.9434 120.316 11.5645C120.545 12.1797 120.659 12.877 120.659 13.6562ZM118.33 14.1133V13.6387C118.33 13.1289 118.274 12.6777 118.163 12.2852C118.058 11.8867 117.902 11.5527 117.697 11.2832C117.498 11.0137 117.249 10.8086 116.95 10.668C116.657 10.5215 116.323 10.4482 115.948 10.4482C115.573 10.4482 115.236 10.5215 114.938 10.668C114.645 10.8086 114.396 11.0137 114.19 11.2832C113.991 11.5527 113.839 11.8867 113.733 12.2852C113.628 12.6777 113.575 13.1289 113.575 13.6387V14.1133C113.575 14.623 113.628 15.0771 113.733 15.4756C113.839 15.8682 113.994 16.2021 114.199 16.4775C114.41 16.7529 114.662 16.9639 114.955 17.1104C115.254 17.251 115.591 17.3213 115.966 17.3213C116.341 17.3213 116.675 17.251 116.968 17.1104C117.261 16.9639 117.507 16.7529 117.706 16.4775C117.911 16.2021 118.066 15.8682 118.172 15.4756C118.277 15.0771 118.33 14.623 118.33 14.1133ZM133.329 13.6562V14.1133C133.329 14.8926 133.215 15.5928 132.986 16.2139C132.764 16.8291 132.444 17.3564 132.028 17.7959C131.612 18.2295 131.117 18.5635 130.543 18.7979C129.969 19.0264 129.333 19.1406 128.636 19.1406C127.938 19.1406 127.303 19.0264 126.729 18.7979C126.154 18.5635 125.656 18.2295 125.234 17.7959C124.812 17.3564 124.487 16.8291 124.259 16.2139C124.03 15.5928 123.916 14.8926 123.916 14.1133V13.6562C123.916 12.877 124.03 12.1797 124.259 11.5645C124.487 10.9434 124.81 10.4131 125.226 9.97363C125.642 9.53418 126.137 9.2002 126.711 8.97168C127.285 8.7373 127.921 8.62012 128.618 8.62012C129.315 8.62012 129.951 8.7373 130.525 8.97168C131.1 9.2002 131.595 9.53418 132.011 9.97363C132.433 10.4131 132.758 10.9434 132.986 11.5645C133.215 12.1797 133.329 12.877 133.329 13.6562ZM131 14.1133V13.6387C131 13.1289 130.944 12.6777 130.833 12.2852C130.728 11.8867 130.572 11.5527 130.367 11.2832C130.168 11.0137 129.919 10.8086 129.62 10.668C129.327 10.5215 128.993 10.4482 128.618 10.4482C128.243 10.4482 127.906 10.5215 127.607 10.668C127.314 10.8086 127.065 11.0137 126.86 11.2832C126.661 11.5527 126.509 11.8867 126.403 12.2852C126.298 12.6777 126.245 13.1289 126.245 13.6387V14.1133C126.245 14.623 126.298 15.0771 126.403 15.4756C126.509 15.8682 126.664 16.2021 126.869 16.4775C127.08 16.7529 127.332 16.9639 127.625 17.1104C127.924 17.251 128.261 17.3213 128.636 17.3213C129.011 17.3213 129.345 17.251 129.638 17.1104C129.931 16.9639 130.177 16.7529 130.376 16.4775C130.581 16.2021 130.736 15.8682 130.842 15.4756C130.947 15.0771 131 14.623 131 14.1133ZM141.218 15.4844H138.414V13.6475H141.218C141.64 13.6475 141.985 13.5859 142.255 13.4629C142.524 13.3398 142.724 13.1729 142.853 12.9619C142.981 12.7451 143.046 12.502 143.046 12.2324C143.046 11.9395 142.981 11.6699 142.853 11.4238C142.724 11.1777 142.524 10.9785 142.255 10.8262C141.985 10.6738 141.64 10.5977 141.218 10.5977H139.249V19H136.92V8.76074H141.218C142.085 8.76074 142.826 8.91016 143.441 9.20898C144.062 9.50781 144.537 9.91797 144.865 10.4395C145.199 10.9551 145.366 11.5469 145.366 12.2148C145.366 12.707 145.272 13.1553 145.085 13.5596C144.897 13.958 144.625 14.3008 144.268 14.5879C143.91 14.875 143.474 15.0977 142.958 15.2559C142.448 15.4082 141.868 15.4844 141.218 15.4844Z" fill="white"/>
</svg>
